<?xml version="1.0" encoding="UTF-8"?>
<svg version="1.1" xmlns="http://www.w3.org/2000/svg" width="512" height="512" viewBox="0 0 512 512">
<path d="M0 0 C0.66 0.33 1.32 0.66 2 1 C4.11101903 -0.27273032 6.10518378 -1.59427418 8.125 -3 C30.68024758 -18.00066199 56.72454229 -22.80308611 83.48803711 -17.91699219 C106.98972499 -12.7935251 129.57752267 1.62029505 143.13427734 21.67822266 C145.64150325 25.67526565 147.84639048 29.80359308 150 34 C150.72509766 35.39025391 150.72509766 35.39025391 151.46484375 36.80859375 C162.44209389 59.26357656 163.10229125 86.64097324 155.26855469 110.19970703 C145.94578615 135.61744391 127.44513913 155.57731841 102.98828125 167.13183594 C97.17183896 169.67153004 91.12801908 171.39318396 85 173 C83.67355469 173.36931641 83.67355469 173.36931641 82.3203125 173.74609375 C58.59493427 179.24158871 32.27108532 173.75948044 11.75 161.25 C10.53432145 160.48777255 9.32063491 159.72235478 8.109375 158.953125 C5.76721831 157.48192105 3.50137704 156.16400714 1 155 C0.47535156 155.4125 -0.04929688 155.825 -0.58984375 156.25 C-21.97193432 172.18872974 -48.12348308 177.76617628 -74.43359375 174.5390625 C-96.49333885 170.82235619 -114.40937127 160.8123227 -130 145 C-130.74894531 144.26136719 -131.49789062 143.52273438 -132.26953125 142.76171875 C-140.8804035 133.74323125 -146.61437274 122.84054264 -150.9375 111.25 C-151.21988525 110.49477051 -151.50227051 109.73954102 -151.79321289 108.96142578 C-159.99023235 85.72439544 -157.90927788 58.81202827 -147.77246094 36.55322266 C-135.49100101 10.89904794 -114.52944034 -6.24609065 -88.05712891 -15.69335938 C-57.7788318 -25.74232191 -25.29176935 -17.94052843 0 0 Z " fill="#FFD840" transform="translate(254,178)"/>
<path d="M0 0 C2.2578125 1.796875 2.2578125 1.796875 4.2578125 4.796875 C3.53335938 5.4259375 2.80890625 6.055 2.0625 6.703125 C0.61230469 7.98703125 0.61230469 7.98703125 -0.8671875 9.296875 C-2.29417969 10.54984375 -2.29417969 10.54984375 -3.75 11.828125 C-7.24580879 15.0980221 -9.97816543 18.90649868 -12.7421875 22.796875 C-11.71335449 22.78003662 -10.68452148 22.76319824 -9.62451172 22.74584961 C-5.78846042 22.69501939 -1.95439961 22.70363177 1.88183594 22.72973633 C3.53845978 22.73280894 5.1951953 22.71999441 6.8515625 22.69067383 C20.58900034 22.46364285 20.58900034 22.46364285 24.67871094 25.73095703 C27.15894159 29.34752767 28.19410418 32.54204171 29.2578125 36.796875 C4.0128125 37.291875 4.0128125 37.291875 -21.7421875 37.796875 C-24.2171875 43.241875 -24.2171875 43.241875 -26.7421875 48.796875 C-6.2821875 48.796875 14.1778125 48.796875 35.2578125 48.796875 C36.2478125 52.756875 37.2378125 56.716875 38.2578125 60.796875 C36.23342041 60.79163818 34.20902832 60.78640137 32.12329102 60.78100586 C25.44969231 60.76446812 18.77609272 60.75340304 12.10247898 60.74506283 C8.05455508 60.73983459 4.00665209 60.73273801 -0.04125977 60.72143555 C-3.94454721 60.71060457 -7.84781449 60.70459772 -11.7511158 60.70199776 C-13.24352397 60.70014389 -14.73593098 60.696524 -16.22833061 60.69114494 C-18.31166889 60.68393169 -20.39492281 60.68288417 -22.47827148 60.68334961 C-24.26031227 60.68001869 -24.26031227 60.68001869 -26.07835388 60.67662048 C-28.66339443 60.49324905 -28.66339443 60.49324905 -29.7421875 61.796875 C-31.43989838 73.68085114 -30.7421875 85.79224626 -30.7421875 97.796875 C-7.9721875 97.796875 14.7978125 97.796875 38.2578125 97.796875 C36.2578125 107.796875 36.2578125 107.796875 35.2578125 110.796875 C15.1278125 111.126875 -5.0021875 111.456875 -25.7421875 111.796875 C-24.4221875 115.096875 -23.1021875 118.396875 -21.7421875 121.796875 C-4.9121875 122.126875 11.9178125 122.456875 29.2578125 122.796875 C26.08619609 132.31172424 26.08619609 132.31172424 22.2578125 135.796875 C19.19790118 136.51437826 17.1650981 136.75802618 14.11328125 136.69921875 C13.34349442 136.71151016 12.57370758 136.72380157 11.78059387 136.73646545 C9.33452255 136.76812735 6.89147628 136.75194214 4.4453125 136.734375 C2.7818731 136.74748824 1.11845523 136.76373024 -0.54492188 136.78320312 C-4.6113202 136.82399774 -8.67568311 136.82190452 -12.7421875 136.796875 C-11.34162626 138.54648931 -9.93560025 140.29172984 -8.52734375 142.03515625 C-7.35377319 143.49369019 -7.35377319 143.49369019 -6.15649414 144.98168945 C-3.00004869 148.66224083 0.47580111 151.77744902 4.2578125 154.796875 C-8.29000532 168.30630129 -30.01277803 175.95727892 -48.10229492 176.92285156 C-75.50430752 177.74431404 -101.1249056 171.786435 -121.6796875 152.796875 C-123.73422712 150.82897814 -125.74485319 148.8226108 -127.7421875 146.796875 C-128.49113281 146.05824219 -129.24007812 145.31960938 -130.01171875 144.55859375 C-138.622591 135.54010625 -144.35656024 124.63741764 -148.6796875 113.046875 C-148.96207275 112.29164551 -149.24445801 111.53641602 -149.53540039 110.75830078 C-157.73241985 87.52127044 -155.65146538 60.60890327 -145.51464844 38.35009766 C-133.23318851 12.69592294 -112.27162784 -4.44921565 -85.79931641 -13.89648438 C-56.88790608 -23.49179544 -24.66696793 -16.80311167 0 0 Z " fill="#FF6040" transform="translate(251.7421875,176.203125)"/>
<path d="M0 0 C23.43 0 46.86 0 71 0 C71 3.96 71 7.92 71 12 C47.57 12 24.14 12 0 12 C0 8.04 0 4.08 0 0 Z " fill="#FF6041" transform="translate(221,250)"/>
</svg>
