<?xml version="1.0" encoding="UTF-8"?>
<svg version="1.1" xmlns="http://www.w3.org/2000/svg" width="512" height="512" viewBox="0 0 512 512">
<path d="M0 0 C0.9029631 0.0028299 1.80592621 0.00565979 2.73625183 0.00857544 C5.60946109 0.01973643 8.4823543 0.04483353 11.35546875 0.0703125 C13.30793819 0.08034757 15.26041254 0.0894725 17.21289062 0.09765625 C21.98970441 0.11966242 26.76628306 0.15416419 31.54296875 0.1953125 C35.56650694 15.22115179 38.62820115 30.46689705 41.80448818 45.68816996 C42.44227052 48.74311615 43.08182099 51.79769125 43.72127843 54.85228717 C45.22882116 62.05421747 46.73286888 69.25687166 48.23486328 76.45996094 C49.78121568 83.87537901 51.33440969 91.28934192 52.89074683 98.70267022 C54.23268791 105.09619485 55.56999915 111.49067635 56.90369439 117.88592613 C57.69787794 121.69378546 58.49388702 125.50123996 59.29454803 129.30774307 C60.04518741 132.87725387 60.79004533 136.44792302 61.53050041 140.01955986 C61.93199889 141.94901349 62.33941857 143.87723203 62.74702454 145.80540466 C62.98525436 146.9600975 63.22348419 148.11479034 63.46893311 149.30447388 C63.6775938 150.30319582 63.8862545 151.30191776 64.10123825 152.33090401 C64.54296875 155.1953125 64.54296875 155.1953125 64.54296875 161.1953125 C51.67296875 161.1953125 38.80296875 161.1953125 25.54296875 161.1953125 C23.89296875 153.6053125 22.24296875 146.0153125 20.54296875 138.1953125 C3.38296875 137.8653125 -13.77703125 137.5353125 -31.45703125 137.1953125 C-32.44703125 140.4953125 -33.43703125 143.7953125 -34.45703125 147.1953125 C-36.10703125 151.8153125 -37.75703125 156.4353125 -39.45703125 161.1953125 C-54.30703125 161.1953125 -69.15703125 161.1953125 -84.45703125 161.1953125 C-82.48796702 155.2881198 -80.47586398 149.57966171 -78.078125 143.859375 C-77.7542984 143.07973389 -77.4304718 142.30009277 -77.09683228 141.49682617 C-76.03248975 138.93668917 -74.96358147 136.37848685 -73.89453125 133.8203125 C-73.13510499 131.99667792 -72.37591378 130.17294544 -71.61694336 128.34912109 C-69.23513552 122.6291643 -66.84660815 116.91202715 -64.45703125 111.1953125 C-63.70083974 109.38541943 -62.94465472 107.57552365 -62.18847656 105.765625 C-58.09975704 95.98165742 -54.00308501 86.20104045 -49.90278625 76.42192078 C-47.53722938 70.77822948 -45.1773986 65.13217846 -42.82182312 59.48431396 C-41.21293028 55.62680171 -39.60255928 51.7699072 -37.99215698 47.9130249 C-37.23502913 46.09858687 -36.47858868 44.2838618 -35.72293091 42.46881104 C-33.65776632 37.50888534 -31.57732652 32.55592704 -29.47644043 27.61102295 C-28.42641037 25.12274971 -27.39765282 22.62622614 -26.36816406 20.12939453 C-25.68260129 18.5064298 -24.99611351 16.88385543 -24.30859375 15.26171875 C-24.00956146 14.52179184 -23.71052917 13.78186493 -23.4024353 13.01951599 C-20.86438009 7.12476514 -17.81162697 4.10515502 -12.1730957 0.89501953 C-8.11145089 -0.15133319 -4.17634962 -0.04949454 0 0 Z M1.54296875 47.1953125 C-1.38886369 53.56232175 -3.95484555 60.00689868 -6.34765625 66.59375 C-6.69713318 67.55052643 -7.04661011 68.50730286 -7.40667725 69.49307251 C-8.13765407 71.49755601 -8.86698352 73.50264097 -9.59472656 75.50830078 C-10.7122005 78.58454268 -11.83825545 81.65755478 -12.96484375 84.73046875 C-13.6763013 86.68470658 -14.3872569 88.63912724 -15.09765625 90.59375 C-15.4350885 91.51247894 -15.77252075 92.43120789 -16.12017822 93.3777771 C-16.58131012 94.655233 -16.58131012 94.655233 -17.05175781 95.95849609 C-17.46001801 97.08026749 -17.46001801 97.08026749 -17.87652588 98.22470093 C-18.59831908 100.33254567 -18.59831908 100.33254567 -18.45703125 103.1953125 C-7.89703125 103.1953125 2.66296875 103.1953125 13.54296875 103.1953125 C12.31585457 95.21907031 11.05971187 87.38986294 9.37890625 79.51953125 C9.18197174 78.58349564 8.98503723 77.64746002 8.78213501 76.68305969 C8.1640418 73.74893668 7.54110692 70.81586774 6.91796875 67.8828125 C6.49316577 65.87051104 6.0686841 63.85814172 5.64453125 61.84570312 C4.61437801 56.96144974 3.57988717 52.07813392 2.54296875 47.1953125 C2.21296875 47.1953125 1.88296875 47.1953125 1.54296875 47.1953125 Z " fill="#1929DF" transform="translate(447.45703125,175.8046875)"/>
<path d="M0 0 C9.93588364 -0.06957695 19.8717091 -0.12285037 29.80778694 -0.15543652 C34.42175032 -0.17107796 39.03554675 -0.19228842 43.64941406 -0.22631836 C48.10386669 -0.25896611 52.55815895 -0.27686446 57.01272202 -0.28463173 C58.71035155 -0.29016552 60.40797252 -0.30097173 62.1055336 -0.31719017 C64.4873766 -0.33903674 66.86856086 -0.34196395 69.25048828 -0.34057617 C69.94892349 -0.351362 70.6473587 -0.36214783 71.36695862 -0.3732605 C76.9525253 -0.33815379 80.74745529 1.13189478 85.02888489 4.68261719 C89.7696616 9.91490597 91.38382412 14.35253179 92.51171875 21.25 C92.70191086 22.27230713 92.89210297 23.29461426 93.08805847 24.34790039 C93.51166579 26.63442589 93.92389985 28.92307864 94.32659912 31.21337891 C95.05133741 35.28867694 95.82161877 39.35343974 96.60400391 43.41796875 C98.21737617 51.81862898 99.79706785 60.22534479 101.36962891 68.63372803 C102.11900423 72.63766022 102.87116164 76.64106977 103.62304688 80.64453125 C105.08467033 88.42919428 106.5433427 96.21440619 108 104 C111.11294101 98.00756674 113.70130471 91.94095269 116.1328125 85.64453125 C116.52276398 84.6445813 116.91271545 83.64463135 117.31448364 82.61437988 C118.15251082 80.46477394 118.9889189 78.31453621 119.82385254 76.16372681 C122.03834868 70.46008516 124.2653561 64.76133469 126.4921875 59.0625 C126.94634033 57.89962967 127.40049316 56.73675934 127.8684082 55.53865051 C135.1259085 36.97804269 142.57793946 18.49529603 150 0 C164.85 0 179.7 0 195 0 C191.62531121 10.12406636 191.62531121 10.12406636 190.20092773 13.47021484 C189.71674377 14.61499298 189.71674377 14.61499298 189.22277832 15.78289795 C188.87984741 16.584151 188.5369165 17.38540405 188.18359375 18.2109375 C187.81528442 19.07954407 187.4469751 19.94815063 187.06750488 20.84307861 C186.27450148 22.71235996 185.47997181 24.58099442 184.68405151 26.44903564 C182.97388502 30.46321889 181.27147748 34.48067711 179.56874084 38.49801636 C178.68541289 40.58208774 177.80173242 42.66600975 176.91770935 44.74978638 C172.55875816 55.02808139 168.24347174 65.32442146 163.9375 75.625 C163.19925138 77.38998761 162.46097007 79.15496154 161.72265625 80.91992188 C158.68344254 88.18624158 155.64628333 95.45341966 152.609375 102.72070312 C150.60434629 107.51859943 148.59842697 112.31612271 146.59207153 117.11346436 C145.4856885 119.75974143 144.38038287 122.40646653 143.27514648 125.05322266 C138.25393556 137.06621317 133.14172105 149.0380413 128 161 C113.15 161 98.3 161 83 161 C77.53372264 140.19577992 72.0824581 119.38934629 66.74569702 98.55158997 C65.99895171 95.63653281 65.25122917 92.72172807 64.50317383 89.80700684 C64.2557695 88.8429467 64.00836517 87.87888657 63.75346375 86.88561249 C63.2545462 84.94150175 62.75561436 82.99739469 62.25666809 81.05329132 C60.98415027 76.09314425 59.71425783 71.13234569 58.44873047 66.17041016 C57.19055657 61.23809353 55.92577372 56.30751399 54.65649414 51.37804413 C54.18202359 49.5303529 53.70996651 47.68204002 53.24047852 45.83307648 C52.59239089 43.28191168 51.93586858 40.73305774 51.27734375 38.18457031 C51.09034409 37.43991013 50.90334442 36.69524994 50.7106781 35.92802429 C48.73392627 28.35382542 46.43535143 23.61005175 40 19 C27.57942372 12.68892067 13.46461244 9.32461924 0 6 C0 4.02 0 2.04 0 0 Z " fill="#1929DF" transform="translate(0,176)"/>
<path d="M0 0 C1.04285156 0.23976562 2.08570313 0.47953125 3.16015625 0.7265625 C8.20111032 2.0169333 8.20111032 2.0169333 10 3 C11.67496007 6.83610427 10.47435711 10.49377027 9.56640625 14.390625 C9.40961899 15.09523865 9.25283173 15.79985229 9.09129333 16.52581787 C8.59008484 18.76919369 8.07648389 21.00952042 7.5625 23.25 C7.21988139 24.7732529 6.87807503 26.29668875 6.53710938 27.8203125 C5.70080614 31.54906095 4.85338001 35.27512439 4 39 C3.01507568 38.70343506 3.01507568 38.70343506 2.01025391 38.40087891 C-23.23672435 30.4484806 -23.23672435 30.4484806 -48.375 35.8125 C-51.1315006 38.10958383 -52.65413657 39.67492563 -54 43 C-54.39433024 45.98212014 -54.39433024 45.98212014 -53 49 C-47.33905905 55.30132763 -39.93847562 59.07315855 -32.5625 63 C-16.78527241 71.42957419 -3.24879014 80.21998348 2.609375 97.83203125 C5.1988067 112.20337717 2.29980208 126.4306555 -5.98046875 138.44140625 C-17.48147051 153.0123079 -34.8192369 159.78750398 -52.73046875 162.58203125 C-72.51873052 164.84701005 -97.75419369 164.12290315 -116 155 C-114.30127173 143.21031871 -111.58444408 131.6196606 -109 120 C-105.00478914 118.79209619 -103.30084236 119.47218664 -99.5 121.25 C-84.00500404 128.05268115 -66.24156808 130.86434033 -50 125 C-48.64893057 124.02409572 -47.31123026 123.02881144 -46 122 C-45.34 122 -44.68 122 -44 122 C-42.30379436 118.00892789 -41.43538988 114.40657026 -42.15332031 110.06298828 C-45.49218744 101.92762864 -56.02769759 97.56061792 -63.4375 94 C-77.26715013 87.32804156 -91.32990069 77.98099924 -97 63 C-100.84385402 51.91026024 -99.37179764 39.83324548 -94.3046875 29.34765625 C-86.19131145 14.74843767 -74.10532919 5.6929391 -58.22265625 0.84765625 C-39.19953259 -4.50995263 -19.18486799 -4.83503031 0 0 Z " fill="#1929DF" transform="translate(363,176)"/>
<path d="M0 0 C1.77206192 0.00015919 3.54412846 0.00585754 5.31616211 0.01586914 C6.24698105 0.01728409 7.17779999 0.01869904 8.13682556 0.02015686 C11.12241777 0.02577367 14.10793615 0.03832899 17.09350586 0.05102539 C19.11238499 0.05603823 21.13126529 0.06060151 23.15014648 0.06469727 C28.11046158 0.07574856 33.07072118 0.09302444 38.03100586 0.11352539 C36.63417522 9.04980575 34.87676612 17.88223558 32.97412109 26.72290039 C32.66980366 28.14668444 32.36572328 29.57051917 32.06185913 30.99440002 C31.24413168 34.82287427 30.42307996 38.6506284 29.60134768 42.47824478 C28.73911715 46.49713978 27.87988215 50.51667521 27.02027893 54.53613281 C25.57879285 61.27439298 24.13531211 68.0122232 22.69042969 74.74975586 C20.83624559 83.3959114 18.98520624 92.04273697 17.13520718 100.68978882 C15.54157133 108.13854889 13.94670461 115.58704533 12.35153317 123.03547668 C11.83982798 125.42495897 11.32825272 127.81446905 10.816679 130.20397949 C10.01381574 133.95360651 9.21019032 137.70306942 8.40597153 141.45240593 C8.11105609 142.82780934 7.81637094 144.20326215 7.5219326 145.57876778 C7.12015728 147.45548134 6.71744374 149.33199398 6.31468201 151.20849609 C6.08959678 152.25850296 5.86451155 153.30850983 5.63260555 154.39033508 C5.13564445 156.63987026 4.58975335 158.87853544 4.03100586 161.11352539 C-10.15899414 161.11352539 -24.34899414 161.11352539 -38.96899414 161.11352539 C-35.35545066 142.82304368 -31.55252399 124.57920726 -27.63901234 106.35118103 C-27.165715 104.14618987 -26.69291224 101.94109321 -26.22026825 99.73596191 C-24.56749426 92.02500675 -22.91292012 84.31444049 -21.2565918 76.60424805 C-19.71658174 69.43527104 -18.18074469 62.26540817 -16.64671636 55.09514904 C-15.3210343 48.89962871 -13.99248974 42.70472679 -12.66168666 36.51030445 C-11.87022859 32.82610059 -11.07994596 29.14165418 -10.29257965 25.45657349 C-9.42097521 21.37778091 -8.54343279 17.30028882 -7.6652832 13.22290039 C-7.27570183 11.39368294 -7.27570183 11.39368294 -6.87825012 9.5275116 C-6.64009079 8.42635513 -6.40193146 7.32519867 -6.15655518 6.19067383 C-5.95011509 5.22852966 -5.743675 4.2663855 -5.53097916 3.27508545 C-4.55374934 -0.48362852 -4.25894503 0.12181887 0 0 Z " fill="#1929DF" transform="translate(215.968994140625,175.886474609375)"/>
</svg>
